# xmcd
#
# Track frame offsets:
#	150
#	20250
#	45785
#	68957
#	86175
#	106475
#	128250
#	142710
#	160660
#	177410
#	194100
#	210295
#
# Disc length: 3077 seconds
# Revision: 2
# Processed by: cddbd v1.5.2PL0 Copyright (c) Steve Scherf et al.
# Submitted via: dBpowerAMP V12.0
#
DISCID=950c030c
DTITLE=The Cache Valley Drifters - White Room
DYEAR=1996
DGENRE=Bluegrass
TTITLE0=White Room
TTITLE1=Wake up in the Morning
TTITLE2=Masters_Dixieland Lady
TTITLE3=Convicts
TTITLE4=Boy in the Bubble
TTITLE5=Green Eyes
TTITLE6=Yacht Crash
TTITLE7=I Thought I Heard You Calling
TTITLE8=Highway Bound
TTITLE9=Opal Eyes
TTITLE10=Joanne
TTITLE11=The Lighthouse
EXTD=
EXTT0=
EXTT1=
EXTT2=
EXTT3=
EXTT4=
EXTT5=
EXTT6=
EXTT7=
EXTT8=
EXTT9=
EXTT10=
EXTT11=
PLAYORDER=
